<?xml version="1.0" encoding="utf-8"?>
<!-- Generator: Adobe Illustrator 18.0.0, SVG Export Plug-In . SVG Version: 6.00 Build 0)  -->
<!DOCTYPE svg PUBLIC "-//W3C//DTD SVG 1.1//EN" "http://www.w3.org/Graphics/SVG/1.1/DTD/svg11.dtd">
<svg version="1.1" id="Layer_1" xmlns="http://www.w3.org/2000/svg" xmlns:xlink="http://www.w3.org/1999/xlink" x="0px" y="0px"
	 viewBox="0 0 1000 1000" enable-background="new 0 0 1000 1000" xml:space="preserve">
<path fill="none" stroke="#000000" stroke-width="10" stroke-miterlimit="10" d="M970.4,819.8c0-149.9-85.1-278.6-206.8-334.4
	c20.8-31.3,30.3-67.8,28.5-103.9c-2.1-41.2-18.9-81.8-50.4-113.2c-67.3-67.1-176.3-66.9-243.4,0.4c-41.7,41.9-57.4,99.8-47.2,153.8
	c-13.4-9.7-27.6-18.1-42.7-25c15.5-23.4,22.6-50.7,21.3-77.6c-1.5-30.8-14.1-61.1-37.7-84.6c-50.3-50.1-131.8-50-181.9,0.3
	c-45.2,45.3-49.5,115.9-13.1,166.2C110.9,445.5,51.3,539.1,51.3,647.5h275.1c-26,51.3-40.8,110-40.8,172.4H970.4z"/>
</svg>
